<?xml version="1.0" encoding="UTF-8" standalone="no"?>
<!-- Created with Inkscape (http://www.inkscape.org/) -->

<svg
   xmlns:dc="http://purl.org/dc/elements/1.1/"
   xmlns:cc="http://creativecommons.org/ns#"
   xmlns:rdf="http://www.w3.org/1999/02/22-rdf-syntax-ns#"
   xmlns:svg="http://www.w3.org/2000/svg"
   xmlns="http://www.w3.org/2000/svg"
   xmlns:sodipodi="http://sodipodi.sourceforge.net/DTD/sodipodi-0.dtd"
   xmlns:inkscape="http://www.inkscape.org/namespaces/inkscape"
   sodipodi:docname="logoConcepts.svg"
   inkscape:version="0.91 r13725"
   version="1.1"
   id="svg2"
   viewBox="0 0 744.09448819 1052.3622047"
   height="297mm"
   width="210mm">
  <defs
     id="defs4">
    <inkscape:perspective
       sodipodi:type="inkscape:persp3d"
       inkscape:vp_x="0 : 526.1811 : 1"
       inkscape:vp_y="0 : 1000 : 0"
       inkscape:vp_z="576.40917 : 178.68862 : 1"
       inkscape:persp3d-origin="372.04724 : 350.7874 : 1"
       id="perspective3342" />
  </defs>
  <sodipodi:namedview
     showguides="false"
     inkscape:window-maximized="1"
     inkscape:window-y="0"
     inkscape:window-x="0"
     inkscape:window-height="820"
     inkscape:window-width="1440"
     showgrid="true"
     inkscape:current-layer="layer1"
     inkscape:document-units="px"
     inkscape:cy="552.67265"
     inkscape:cx="375.29759"
     inkscape:zoom="0.98994948"
     inkscape:pageshadow="2"
     inkscape:pageopacity="0.0"
     borderopacity="1.0"
     bordercolor="#666666"
     pagecolor="#ffffff"
     id="base">
    <inkscape:grid
       type="xygrid"
       id="grid3431"
       spacingx="10"
       spacingy="10" />
  </sodipodi:namedview>
  <metadata
     id="metadata7">
    <rdf:RDF>
      <cc:Work
         rdf:about="">
        <dc:format>image/svg+xml</dc:format>
        <dc:type
           rdf:resource="http://purl.org/dc/dcmitype/StillImage" />
        <dc:title />
      </cc:Work>
    </rdf:RDF>
  </metadata>
  <g
     inkscape:label="Layer 1"
     inkscape:groupmode="layer"
     id="layer1">
    <path
       style="fill:#5aa02c;fill-opacity:1;stroke:none;stroke-width:15;stroke-miterlimit:4;stroke-dasharray:none;stroke-opacity:1"
       d="m 96.142021,399.73187 a 80,80 0 0 0 -79.999994,80 80,80 0 0 0 79.999994,80 80,80 0 0 0 79.999999,-80 80,80 0 0 0 -79.999999,-80 z m -41.04491,24.97461 22.20311,0 12.93555,0 12.542969,0 c 9.95444,0 17.85442,0.7302 23.69922,2.1914 5.89047,1.41554 10.86767,3.37919 14.93164,5.89063 6.94071,4.33794 12.35111,10.11343 16.23242,17.32812 3.88132,7.21468 5.82227,15.77678 5.82227,25.68555 0,9.2695 -2.03174,17.67076 -6.09571,25.20508 -4.01831,7.53432 -9.38331,13.37985 -16.0957,17.53516 -4.65758,2.87674 -9.86371,4.95387 -15.61719,6.23242 -5.70782,1.27855 -13.24371,2.05619 -22.60351,1.91797 L 77.399831,526.3139 c -5.46045,0.48991 -10.49192,1.81836 -17.30272,1.81836 -2.1918,0 -5.76833,-0.35965 -9.39258,-0.97461 -3.53061,-1.00631 -4.47314,-1.33324 -8.46289,-3.63672 l -0.0898,-10.04687 0.7539,0 c 1.87217,0.63927 4.17822,1.30138 6.91797,1.98632 2.73975,0.68494 5.54709,1.02735 8.42383,1.02735 4.20095,0 7.53422,-0.48055 9.99999,-1.43946 2.51144,-0.95891 4.3616,-2.32853 5.54883,-4.10937 1.23289,-1.8265 2.00849,-4.06251 2.32812,-6.71094 0.3653,-2.64843 0.54883,-5.70934 0.54883,-9.17969 l 0,-56.41406 c -3.03571,-2.94643 -21.57616,-2 -21.57616,-2 l 0,-11.92773 z m 48.771469,11.73242 c 0,0 -10.239949,0.48159 -13.007809,1.91016 l 0,74.55664 c 0,0 2.44892,1.88935 13.749999,2.01562 8.81608,-0.37881 11.20469,-0.35164 16.04492,-1.31055 4.88589,-0.95891 9.36181,-2.73902 13.42578,-5.34179 5.06854,-3.24204 8.8577,-7.51175 11.36914,-12.8086 2.55711,-5.29686 3.83594,-11.918 3.83594,-19.86328 0,-7.99095 -1.39231,-14.72752 -4.17773,-20.20703 -2.78541,-5.47951 -6.94163,-9.7946 -12.4668,-12.94531 -4.01831,-2.28313 -8.288,-3.85702 -12.80859,-4.72461 -4.52059,-0.91328 -8.46259,-1.26335 -15.96485,-1.28125 z"
       id="path4245"
       inkscape:connector-curvature="0" />
    <g
       style="font-style:normal;font-variant:normal;font-weight:normal;font-stretch:normal;font-size:140.27534485px;line-height:125%;font-family:'Gujarati Sangam MN';-inkscape-font-specification:'Gujarati Sangam MN, Normal';text-align:start;letter-spacing:0px;word-spacing:0px;writing-mode:lr-tb;text-anchor:start;fill:#44aa00;fill-opacity:1;stroke:none;stroke-width:1px;stroke-linecap:butt;stroke-linejoin:miter;stroke-opacity:1"
       id="text3439-4-0-0-6"
       transform="translate(-366.68538,193.94929)" />
    <g
       style="font-style:normal;font-variant:normal;font-weight:normal;font-stretch:normal;font-size:140.27534485px;line-height:125%;font-family:'Gujarati Sangam MN';-inkscape-font-specification:'Gujarati Sangam MN, Normal';text-align:start;letter-spacing:0px;word-spacing:0px;writing-mode:lr-tb;text-anchor:start;fill:#44aa00;fill-opacity:1;stroke:none;stroke-width:1px;stroke-linecap:butt;stroke-linejoin:miter;stroke-opacity:1"
       id="text3439-4-0-0-1"
       transform="translate(-366.68538,193.94929)" />
    <g
       id="g3758"
       transform="translate(4,-1.7229029)">
      <text
         sodipodi:linespacing="125%"
         id="text3736"
         y="503.13446"
         x="189.49237"
         style="font-style:normal;font-weight:normal;font-size:40px;line-height:125%;font-family:Sans;letter-spacing:0px;word-spacing:0px;fill:#5aa02c;fill-opacity:1;stroke:none;stroke-width:1px;stroke-linecap:butt;stroke-linejoin:miter;stroke-opacity:1"
         xml:space="preserve"><tspan
           style="font-size:80px;fill:#5aa02c;fill-opacity:1"
           y="503.13446"
           x="189.49237"
           id="tspan3738"
           sodipodi:role="line">JUNG</tspan></text>
      <text
         sodipodi:linespacing="125%"
         id="text3736-2"
         y="503.13446"
         x="395.34952"
         style="font-style:normal;font-weight:normal;font-size:40px;line-height:125%;font-family:Sans;letter-spacing:0px;word-spacing:0px;fill:#5aa02c;fill-opacity:1;stroke:none;stroke-width:1px;stroke-linecap:butt;stroke-linejoin:miter;stroke-opacity:1"
         xml:space="preserve"><tspan
           style="font-size:80px;fill:#000000;fill-opacity:1"
           y="503.13446"
           x="395.34952"
           id="tspan3738-8"
           sodipodi:role="line">DIGITAL</tspan></text>
    </g>
  </g>
</svg>
