<?xml version="1.0" encoding="UTF-8" standalone="no"?>
<!-- Created with Inkscape (http://www.inkscape.org/) -->

<svg
   xmlns:dc="http://purl.org/dc/elements/1.1/"
   xmlns:cc="http://creativecommons.org/ns#"
   xmlns:rdf="http://www.w3.org/1999/02/22-rdf-syntax-ns#"
   xmlns:svg="http://www.w3.org/2000/svg"
   xmlns="http://www.w3.org/2000/svg"
   xmlns:sodipodi="http://sodipodi.sourceforge.net/DTD/sodipodi-0.dtd"
   xmlns:inkscape="http://www.inkscape.org/namespaces/inkscape"
   width="210mm"
   height="297mm"
   viewBox="0 0 744.09448819 1052.3622047"
   id="svg4293"
   version="1.1"
   inkscape:version="0.91 r13725"
   sodipodi:docname="jd-full.svg">
  <defs
     id="defs4295" />
  <sodipodi:namedview
     id="base"
     pagecolor="#ffffff"
     bordercolor="#666666"
     borderopacity="1.0"
     inkscape:pageopacity="0.0"
     inkscape:pageshadow="2"
     inkscape:zoom="0.35"
     inkscape:cx="-299.28571"
     inkscape:cy="520"
     inkscape:document-units="px"
     inkscape:current-layer="layer1"
     showgrid="false"
     inkscape:window-width="2560"
     inkscape:window-height="1061"
     inkscape:window-x="-4"
     inkscape:window-y="-4"
     inkscape:window-maximized="1" />
  <metadata
     id="metadata4298">
    <rdf:RDF>
      <cc:Work
         rdf:about="">
        <dc:format>image/svg+xml</dc:format>
        <dc:type
           rdf:resource="http://purl.org/dc/dcmitype/StillImage" />
        <dc:title></dc:title>
      </cc:Work>
    </rdf:RDF>
  </metadata>
  <g
     inkscape:label="Layer 1"
     inkscape:groupmode="layer"
     id="layer1">
    <g
       id="g4358"
       transform="translate(-2.2384741,39.533211)">
      <g
         transform="matrix(6.0629624,0,0,6.0629624,-1687.6968,-3868.7914)"
         id="text3439-0-5"
         style="font-style:normal;font-weight:normal;font-size:40px;line-height:125%;font-family:Sans;letter-spacing:0px;word-spacing:0px;fill:#5aa02c;fill-opacity:1;stroke:none;stroke-width:1px;stroke-linecap:butt;stroke-linejoin:miter;stroke-opacity:1">
        <path
           inkscape:connector-curvature="0"
           id="path4130"
           style="font-style:normal;font-variant:normal;font-weight:normal;font-stretch:normal;font-size:20px;line-height:125%;font-family:'Gujarati Sangam MN';-inkscape-font-specification:'Gujarati Sangam MN, Normal';text-align:start;writing-mode:lr-tb;text-anchor:start;fill:#5aa02c"
           d="m 290.74356,707.63141 0,10.21484 q 0,1.07422 -0.3125,1.83594 -0.30273,0.76172 -0.82031,1.25 -0.51758,0.48828 -1.21094,0.71289 -0.69336,0.22461 -1.45508,0.22461 -0.73242,0 -1.41601,-0.23438 -0.67383,-0.2246 -1.20117,-0.68359 -0.51758,-0.45898 -0.83008,-1.13281 -0.3125,-0.67383 -0.3125,-1.57227 l 0,-1.07422 1.47461,0 0,0.89844 q 0,0.64453 0.20507,1.12305 0.21485,0.46875 0.54688,0.78125 0.33203,0.30273 0.74219,0.44922 0.41992,0.14648 0.83008,0.14648 0.33203,0 0.72265,-0.12695 0.40039,-0.12695 0.74219,-0.41992 0.35156,-0.29297 0.58594,-0.78125 0.23437,-0.48828 0.23437,-1.21094 l 0,-10.40039 1.47461,0 z" />
        <path
           inkscape:connector-curvature="0"
           id="path4132"
           style="font-style:normal;font-variant:normal;font-weight:normal;font-stretch:normal;font-size:20px;line-height:125%;font-family:'Gujarati Sangam MN';-inkscape-font-specification:'Gujarati Sangam MN, Normal';text-align:start;writing-mode:lr-tb;text-anchor:start;fill:#5aa02c"
           d="m 294.26895,707.63141 0,9.3164 q 0,0.84961 0.3125,1.52344 0.3125,0.67383 0.81055,1.14258 0.50781,0.45898 1.13281,0.71289 0.63477,0.24414 1.26953,0.24414 0.6836,0 1.35742,-0.22461 0.67383,-0.23437 1.21094,-0.68359 0.53711,-0.44922 0.86914,-1.11328 0.3418,-0.67383 0.3418,-1.5625 l 0,-9.35547 1.48437,0 0,9.25781 q 0,1.21094 -0.46875,2.13867 -0.46875,0.92774 -1.2207,1.5625 -0.74219,0.625 -1.67969,0.94727 -0.9375,0.33203 -1.875,0.33203 -0.89843,0 -1.79687,-0.32227 -0.88867,-0.32226 -1.61133,-0.94726 -0.71289,-0.63477 -1.16211,-1.57227 -0.44922,-0.9375 -0.44922,-2.17773 l 0,-9.21875 1.47461,0 z" />
        <path
           inkscape:connector-curvature="0"
           id="path4134"
           style="font-style:normal;font-variant:normal;font-weight:normal;font-stretch:normal;font-size:20px;line-height:125%;font-family:'Gujarati Sangam MN';-inkscape-font-specification:'Gujarati Sangam MN, Normal';text-align:start;writing-mode:lr-tb;text-anchor:start;fill:#5aa02c"
           d="m 307.12051,707.63141 7.04102,11.95312 0,-11.95312 1.47461,0 0,13.83789 -1.98242,0 -7.04102,-11.96289 0,11.96289 -1.47461,0 0,-13.83789 1.98242,0 z" />
        <path
           sodipodi:nodetypes="ccccsccccccccccccsccsccsscscccscccccsscccsc"
           inkscape:connector-curvature="0"
           id="path4136"
           style="font-style:normal;font-variant:normal;font-weight:normal;font-stretch:normal;font-size:20px;line-height:125%;font-family:'Gujarati Sangam MN';-inkscape-font-specification:'Gujarati Sangam MN, Normal';text-align:start;writing-mode:lr-tb;text-anchor:start;fill:#5aa02c"
           d="m 318.59512,714.52594 c 0,0.95052 0.12695,1.80013 0.38086,2.54883 0.25391,0.74219 0.5957,1.37044 1.02539,1.88476 0.4362,0.50781 0.94076,0.89844 1.51368,1.17188 0.57943,0.26693 1.1914,0.40039 1.83593,0.40039 0.37761,0 0.7487,-0.0651 1.11328,-0.19531 0.37109,-0.13021 0.72266,-0.30925 1.05469,-0.53711 0.33203,-0.22787 0.64128,-0.49805 0.92774,-0.81055 0.28645,-0.31901 0.53385,-0.66407 0.74218,-1.03516 0.21485,-0.37109 0.38412,-0.76172 0.50782,-1.17187 0.13021,-0.41016 0.20182,-0.82683 0.21484,-1.25 l -4.29688,0 0,-1.29883 5.69336,0 0,12.12473 -1.3088,0 -0.0291,-7.34934 c -0.22786,0.35807 -0.51432,0.70638 -0.85937,1.04492 -0.34505,0.33855 -0.7194,0.64128 -1.12305,0.90821 -0.40365,0.26041 -0.83008,0.46875 -1.2793,0.625 -0.44271,0.16276 -0.88216,0.24414 -1.31835,0.24414 -0.96355,0 -1.83269,-0.18555 -2.60743,-0.55664 -0.77474,-0.37761 -1.43555,-0.89193 -1.98242,-1.54297 -0.54037,-0.65755 -0.95703,-1.43229 -1.25,-2.32422 -0.29297,-0.89193 -0.43945,-1.85221 -0.43945,-2.88086 0,-0.59896 0.0618,-1.19466 0.18555,-1.78711 0.12369,-0.59896 0.30598,-1.16862 0.54687,-1.70898 0.24089,-0.54037 0.53711,-1.04167 0.88867,-1.50391 0.35807,-0.46224 0.76498,-0.86263 1.22071,-1.20117 0.45573,-0.34505 0.96354,-0.61198 1.52343,-0.80078 0.5599,-0.19531 1.16537,-0.29297 1.81641,-0.29297 0.82682,0 1.5625,0.11068 2.20703,0.33203 0.64453,0.21484 1.20768,0.51757 1.68945,0.9082 0.48177,0.38411 0.88217,0.84635 1.20118,1.38672 0.32552,0.53385 0.57942,1.11654 0.76171,1.74805 l -1.5625,0 c -0.36458,-1.03516 -0.89518,-1.80665 -1.59179,-2.31446 -0.69661,-0.50781 -1.59831,-0.76171 -2.70508,-0.76171 -0.69011,0 -1.32487,0.16276 -1.9043,0.48828 -0.57291,0.31901 -1.0677,0.75195 -1.48437,1.29883 -0.41016,0.54687 -0.73243,1.18489 -0.9668,1.91406 -0.22787,0.72265 -0.3418,1.48763 -0.3418,2.29492 z" />
      </g>
      <g
         transform="matrix(6.0629624,0,0,6.0629624,-1687.6968,-3868.7914)"
         id="text3439-0-5-3"
         style="font-style:normal;font-weight:normal;font-size:40px;line-height:125%;font-family:Sans;letter-spacing:0px;word-spacing:0px;fill:#000000;fill-opacity:1;stroke:none;stroke-width:1px;stroke-linecap:butt;stroke-linejoin:miter;stroke-opacity:1">
        <path
           inkscape:connector-curvature="0"
           id="path4115"
           style="font-style:normal;font-variant:normal;font-weight:normal;font-stretch:normal;font-size:20px;line-height:125%;font-family:'Gujarati Sangam MN';-inkscape-font-specification:'Gujarati Sangam MN, Normal';text-align:start;writing-mode:lr-tb;text-anchor:start"
           d="m 332.31165,707.63141 5.13671,0 q 1.37696,0 2.48047,0.54687 1.10352,0.54688 1.875,1.48438 0.78125,0.9375 1.19141,2.19726 0.41992,1.25 0.41992,2.66602 0,1.47461 -0.43945,2.74414 -0.43946,1.26953 -1.23047,2.20703 -0.79102,0.92774 -1.88477,1.46485 -1.09375,0.52734 -2.41211,0.52734 l -5.13671,0 0,-13.83789 z m 1.45507,12.5 3.08594,0 q 1.09375,0 2.02149,-0.3711 0.92773,-0.38085 1.60156,-1.09375 0.67383,-0.72265 1.05469,-1.75781 0.38085,-1.04492 0.38085,-2.36328 0,-1.43555 -0.38085,-2.49023 -0.38086,-1.05469 -1.06446,-1.73828 -0.67383,-0.6836 -1.60156,-1.01563 -0.92773,-0.33203 -2.01172,-0.33203 l -3.08594,0 0,11.16211 z" />
        <path
           sodipodi:nodetypes="ccccc"
           inkscape:connector-curvature="0"
           id="path4117"
           style="font-style:normal;font-variant:normal;font-weight:normal;font-stretch:normal;font-size:20px;line-height:125%;font-family:'Gujarati Sangam MN';-inkscape-font-specification:'Gujarati Sangam MN, Normal';text-align:start;writing-mode:lr-tb;text-anchor:start"
           d="m 346.33704,707.63141 0,13.83789 -1.47461,0 0,-13.83789 z" />
        <path
           sodipodi:nodetypes="ccccsccccccccccccsccsccsscscccscccccsscccsc"
           inkscape:connector-curvature="0"
           id="path4119"
           style="font-style:normal;font-variant:normal;font-weight:normal;font-stretch:normal;font-size:20px;line-height:125%;font-family:'Gujarati Sangam MN';-inkscape-font-specification:'Gujarati Sangam MN, Normal';text-align:start;writing-mode:lr-tb;text-anchor:start;fill:#5aa02c;fill-opacity:1"
           d="m 349.5025,714.52594 c 0,0.95052 0.12695,1.80013 0.38086,2.54883 0.2539,0.74219 0.5957,1.37044 1.02539,1.88476 0.43619,0.50781 0.94075,0.89844 1.51367,1.17188 0.57942,0.26693 1.1914,0.40039 1.83594,0.40039 0.3776,0 0.74869,-0.0651 1.11328,-0.19531 0.37109,-0.13021 0.72265,-0.30925 1.05469,-0.53711 0.33202,-0.22787 0.64127,-0.49805 0.92773,-0.81055 0.28646,-0.31901 0.53385,-0.66407 0.74219,-1.03516 0.21484,-0.37109 0.38411,-0.76172 0.50781,-1.17187 0.1302,-0.41016 0.20182,-0.82683 0.21484,-1.25 l -4.29687,0 0,-1.29883 5.69336,0 0,12.10821 -1.30023,0 -0.0377,-7.33282 c -0.22787,0.35807 -0.51433,0.70638 -0.85938,1.04492 -0.34506,0.33855 -0.7194,0.64128 -1.12304,0.90821 -0.40365,0.26041 -0.83008,0.46875 -1.2793,0.625 -0.44271,0.16276 -0.88216,0.24414 -1.31836,0.24414 -0.96354,0 -1.83268,-0.18555 -2.60742,-0.55664 -0.77474,-0.37761 -1.43555,-0.89193 -1.98242,-1.54297 -0.54037,-0.65755 -0.95704,-1.43229 -1.25,-2.32422 -0.29298,-0.89193 -0.43946,-1.85221 -0.43946,-2.88086 0,-0.59896 0.0618,-1.19466 0.18555,-1.78711 0.1237,-0.59896 0.30599,-1.16862 0.54687,-1.70898 0.24088,-0.54037 0.53711,-1.04167 0.88868,-1.50391 0.35807,-0.46224 0.76497,-0.86263 1.2207,-1.20117 0.45572,-0.34505 0.96354,-0.61198 1.52344,-0.80078 0.55989,-0.19531 1.16536,-0.29297 1.8164,-0.29297 0.82682,0 1.5625,0.11068 2.20703,0.33203 0.64453,0.21484 1.20768,0.51757 1.68946,0.9082 0.48176,0.38411 0.88215,0.84635 1.20117,1.38672 0.32552,0.53385 0.57942,1.11654 0.76172,1.74805 l -1.5625,0 c -0.36459,-1.03516 -0.89519,-1.80665 -1.5918,-2.31446 -0.69662,-0.50781 -1.59831,-0.76171 -2.70508,-0.76171 -0.6901,0 -1.32487,0.16276 -1.90429,0.48828 -0.57292,0.31901 -1.06772,0.75195 -1.48438,1.29883 -0.41016,0.54687 -0.73242,1.18489 -0.9668,1.91406 -0.22786,0.72265 -0.34179,1.48763 -0.34179,2.29492 z" />
        <path
           sodipodi:nodetypes="ccccc"
           inkscape:connector-curvature="0"
           id="path4121"
           style="font-style:normal;font-variant:normal;font-weight:normal;font-stretch:normal;font-size:20px;line-height:125%;font-family:'Gujarati Sangam MN';-inkscape-font-specification:'Gujarati Sangam MN, Normal';text-align:start;writing-mode:lr-tb;text-anchor:start"
           d="m 363.65847,707.63141 0,13.83789 -1.47461,0 0,-13.83789 z" />
        <path
           sodipodi:nodetypes="ccccccccc"
           inkscape:connector-curvature="0"
           id="path4123"
           style="font-style:normal;font-variant:normal;font-weight:normal;font-stretch:normal;font-size:20px;line-height:125%;font-family:'Gujarati Sangam MN';-inkscape-font-specification:'Gujarati Sangam MN, Normal';text-align:start;writing-mode:lr-tb;text-anchor:start"
           d="m 376.13336,707.63141 0,1.33789 -4.58008,0 0,12.5 -1.47461,0 0,-12.5 -4.58008,0 0,-1.33789 z" />
        <path
           sodipodi:nodetypes="ccccccccccccc"
           inkscape:connector-curvature="0"
           id="path4125"
           style="font-style:normal;font-variant:normal;font-weight:normal;font-stretch:normal;font-size:20px;line-height:125%;font-family:'Gujarati Sangam MN';-inkscape-font-specification:'Gujarati Sangam MN, Normal';text-align:start;writing-mode:lr-tb;text-anchor:start"
           d="m 381.34664,707.63141 5.03907,13.83789 -1.5625,0 -1.53321,-4.23828 -5.94726,0 -1.53321,4.23828 -1.58203,0 5.09766,-13.83789 z m -1.03515,1.35742 -2.48047,6.94336 4.95117,0 z" />
        <path
           sodipodi:nodetypes="ccccccc"
           inkscape:connector-curvature="0"
           id="path4127"
           style="font-style:normal;font-variant:normal;font-weight:normal;font-stretch:normal;font-size:20px;line-height:125%;font-family:'Gujarati Sangam MN';-inkscape-font-specification:'Gujarati Sangam MN, Normal';text-align:start;writing-mode:lr-tb;text-anchor:start"
           d="m 389.36996,707.63141 0,12.5 6.96289,0 0,1.33789 -8.4375,0 0,-13.83789 z" />
      </g>
      <rect
         y="533.22864"
         x="300.84723"
         height="7.9556832"
         width="414.30502"
         id="rect4141"
         style="fill:#5aa02c;fill-opacity:1" />
      <circle
         r="16.534649"
         cy="537.63745"
         cx="702.79376"
         id="path4148"
         style="fill:#5aa02c;fill-opacity:1" />
    </g>
  </g>
</svg>
