<?xml version="1.0" encoding="UTF-8" standalone="no"?>
<!-- Created with Inkscape (http://www.inkscape.org/) -->

<svg
   xmlns:dc="http://purl.org/dc/elements/1.1/"
   xmlns:cc="http://creativecommons.org/ns#"
   xmlns:rdf="http://www.w3.org/1999/02/22-rdf-syntax-ns#"
   xmlns:svg="http://www.w3.org/2000/svg"
   xmlns="http://www.w3.org/2000/svg"
   xmlns:sodipodi="http://sodipodi.sourceforge.net/DTD/sodipodi-0.dtd"
   xmlns:inkscape="http://www.inkscape.org/namespaces/inkscape"
   width="210mm"
   height="297mm"
   viewBox="0 0 744.09448819 1052.3622047"
   id="svg4270"
   version="1.1"
   inkscape:version="0.91 r13725"
   sodipodi:docname="jd-round.svg">
  <defs
     id="defs4272" />
  <sodipodi:namedview
     id="base"
     pagecolor="#ffffff"
     bordercolor="#666666"
     borderopacity="1.0"
     inkscape:pageopacity="0.0"
     inkscape:pageshadow="2"
     inkscape:zoom="0.35"
     inkscape:cx="-299.28571"
     inkscape:cy="520"
     inkscape:document-units="px"
     inkscape:current-layer="layer1"
     showgrid="false"
     inkscape:window-width="1499"
     inkscape:window-height="773"
     inkscape:window-x="782"
     inkscape:window-y="159"
     inkscape:window-maximized="0" />
  <metadata
     id="metadata4275">
    <rdf:RDF>
      <cc:Work
         rdf:about="">
        <dc:format>image/svg+xml</dc:format>
        <dc:type
           rdf:resource="http://purl.org/dc/dcmitype/StillImage" />
        <dc:title></dc:title>
      </cc:Work>
    </rdf:RDF>
  </metadata>
  <g
     inkscape:label="Layer 1"
     inkscape:groupmode="layer"
     id="layer1">
    <path
       style="fill:#5aa02c;fill-opacity:1;stroke:none;stroke-width:15;stroke-miterlimit:4;stroke-dasharray:none;stroke-opacity:1"
       d="M 372.04727,194.75253 A 331.42857,331.42857 0 0 0 40.618694,526.1811 331.42857,331.42857 0 0 0 372.04727,857.60967 331.42857,331.42857 0 0 0 703.4758,526.1811 331.42857,331.42857 0 0 0 372.04727,194.75253 Z m -170.0432,103.46624 91.98431,0 53.59014,0 51.96373,0 c 41.23982,0 73.96827,3.02511 98.18244,9.07866 24.40338,5.86438 45.0232,13.9995 61.85965,24.40404 28.75437,17.97146 51.16889,41.89849 67.2486,71.78792 16.07975,29.88939 24.12083,65.36095 24.12083,106.41157 0,38.40221 -8.41721,73.20743 -25.25365,104.42104 -16.64729,31.21361 -38.87372,55.43081 -66.68219,72.64566 -19.29569,11.91793 -40.86394,20.52318 -64.69979,25.82003 -23.64668,5.29685 -54.86675,8.5185 -93.64307,7.94588 L 294.40105,719.1638 c -22.62186,2.02962 -43.46653,7.5332 -71.6827,7.5332 -9.08031,0 -23.89736,-1.48998 -38.91211,-4.03767 -14.62682,-4.169 -18.53158,-5.52342 -35.06055,-15.06641 l -0.37203,-41.62275 3.1233,0 c 7.75614,2.64841 17.30977,5.39143 28.66016,8.22904 11.3504,2.83761 22.98081,4.25617 34.89873,4.25617 17.40393,0 31.2132,-1.99085 41.42853,-5.96348 10.40454,-3.97263 18.06948,-9.64677 22.98801,-17.02453 5.10769,-7.56693 8.32089,-16.8304 9.64507,-27.80247 1.51338,-10.97207 2.27372,-23.65298 2.27372,-38.03014 l 0,-233.71539 c -12.57651,-12.20664 -89.38695,-8.28572 -89.38695,-8.28572 l 0,-49.41488 z m 202.05323,48.60574 c 0,0 -42.42265,1.99516 -53.8895,7.91352 l 0,308.87751 c 0,0 10.14553,7.82731 56.96429,8.35042 36.52376,-1.56935 46.41943,-1.45679 66.47177,-5.42942 20.24154,-3.97262 38.78464,-11.34737 55.62109,-22.13027 20.99823,-13.43131 36.69618,-31.12011 47.10072,-53.0642 10.59374,-21.94413 15.89175,-49.37457 15.89175,-82.29073 0,-33.10537 -5.76814,-61.01401 -17.30774,-83.71484 -11.53955,-22.70083 -28.75818,-40.57763 -51.64817,-53.63057 -16.64728,-9.45868 -34.336,-15.97908 -53.06416,-19.57338 -18.72812,-3.78359 -35.05926,-5.23388 -66.14005,-5.30804 z"
       id="path4245"
       inkscape:connector-curvature="0" />
  </g>
</svg>
